<svg id="Capa_1" enable-background="new 0 0 495.922 495.922" height="28" viewBox="0 0 495.922 495.922" width="28" xmlns="http://www.w3.org/2000/svg"><g><g id="Layer_5_29_"><g><path d="m480.971 73.563c-2.165-31.929-27.551-57.368-59.476-59.6-115.887-8-232.187-8-348.074 0-31.925 2.232-57.311 27.671-59.476 59.6-7.983 116.13-7.983 232.67 0 348.8 2.165 31.929 27.551 57.368 59.476 59.6 115.887 8 232.187 8 348.074 0 31.925-2.232 57.311-27.671 59.476-59.6 7.982-116.12 7.767-232.665 0-348.8z" fill="#f5e8dd"/></g></g><g id="Layer_2_29_"><g><path d="m247.958 495.922c-58.455 0-116.91-1.994-174.956-5.981-35.735-2.476-64.545-31.286-67.02-67.017-7.976-116.097-7.976-233.825 0-349.918 2.473-35.736 31.282-64.548 67.014-67.024 116.099-7.976 233.827-7.977 349.919 0 35.739 2.473 64.552 31.286 67.024 67.021 7.977 116.096 7.977 233.823.001 349.915-2.476 35.739-31.289 64.55-67.023 67.021-.001.001-.002.001-.004.001-58.046 3.987-116.5 5.982-174.955 5.982zm174.407-13.963h.01zm-174.406-465.959c-58.095 0-116.171 1.981-173.861 5.944-27.806 1.927-50.229 24.352-52.153 52.162-7.925 115.361-7.925 232.352 0 347.717 1.926 27.805 24.35 50.229 52.159 52.155 115.36 7.926 232.35 7.927 347.714-.001l-.004.001c27.812-1.924 50.238-24.349 52.165-52.161 7.925-115.36 7.925-232.349-.001-347.713-1.924-27.81-24.35-50.235-52.163-52.16-57.674-3.962-115.775-5.944-173.856-5.944z"/></g></g><g id="Layer_3_29_"><g><circle cx="215.958" cy="215.983" fill="#edf8ff" r="104"/></g><g><path d="m135.958 215.963c.013-52.755 39.534-97.138 91.934-103.245-57.044-6.607-108.643 34.281-115.25 91.325s34.281 108.643 91.325 115.25c3.98.461 7.984.691 11.99.69 3.992-.02 7.98-.279 11.942-.774-52.402-6.104-91.927-50.488-91.941-103.246z" fill="transparent"/></g></g><g id="Layer_1_29_"><g><path d="m300.518 289.21c40.482-46.73 35.417-117.43-11.313-157.913s-117.43-35.417-157.913 11.313c-17.642 20.365-27.347 46.409-27.334 73.352-.028 12.94 2.219 25.784 6.64 37.946 1.515 4.151 6.107 6.288 10.258 4.773s6.288-6.107 4.773-10.258c-3.78-10.404-5.7-21.392-5.671-32.461 0-53.019 42.981-96 96-96s96 42.981 96 96-42.981 96-96 96c-29.867.128-58.057-13.79-76.117-37.578-2.684-3.513-7.707-4.184-11.22-1.5s-4.184 7.707-1.5 11.22c37.479 49.013 107.594 58.364 156.607 20.885 1.871-1.431 3.696-2.92 5.473-4.466l89.101 89.096c3.149 3.063 8.163 3.063 11.312 0 3.124-3.121 3.126-8.183.005-11.307-.002-.002-.003-.003-.005-.005z"/></g></g></g></svg>