<svg clip-rule="evenodd" fill-rule="evenodd" height="42" image-rendering="optimizeQuality" shape-rendering="geometricPrecision" text-rendering="geometricPrecision" viewBox="0 0 6.82666 6.82666" width="42" xmlns="http://www.w3.org/2000/svg" xmlns:xlink="http://www.w3.org/1999/xlink"><linearGradient id="id0" gradientUnits="userSpaceOnUse" x1="0" x2="6.827" y1="0" y2="6.827"><stop offset="0" stop-color="#8a2387"/><stop offset=".501961" stop-color="#e94057"/><stop offset="1" stop-color="#f27121"/></linearGradient><rect fill="transparent" height="6.827" rx="1.114" width="6.827"/><g id="Layer_x0020_1" fill="#000"><path d="m3.31044 4.13296c.0001378 0 .00027165-.00002362.00040945-.00002362l.975957-.00000394c.0001378 0 .00027559.00002362.00040945.00002362.00020079 0 .00039764-.00002362.00059843-.00002362h1.23294c.0481811 0 .0899016-.0334646.10035-.0805l.205898-.926539c.00002362-.00012992.00005906-.00025197.00008661-.00038189l.205224-.923504c.00676378-.0304409-.00065354-.0623031-.0201575-.086626-.0195157-.0243228-.0490118-.0384764-.0801929-.0384764l-.462606.00000394c0-.396795-.322823-.71961-.71961-.71961s-.71961.322815-.71961.71961h-2.28016l-.147953-.739768c-.00961024-.0480512-.0517992-.0826417-.100803-.0826417l-.606528-.00000394c-.0567717 0-.102803.0460236-.102803.102803 0 .0567795.0460276.102803.102803.102803h.522248l.333028 1.66514c.00004724.00024409.00009449.00048819.00014567.00073228l.328787 1.64393c.00961024.0480512.0517992.0826417.100803.0826417l.180976.00000394c-.0493346.0735591-.0781732.161969-.0781732.257004 0 .255083.20752.462606.462606.462606.255083 0 .462602-.207528.462602-.462606 0-.0950354-.0288346-.183445-.0781732-.257004h1.54417c-.0493346.0735591-.0781732.161969-.0781732.257004 0 .255083.20752.462606.462606.462606.255087 0 .462606-.207528.462606-.462606 0-.0950354-.0288346-.183445-.0781732-.257004h.129575c.0567717 0 .102803-.0460236.102803-.102803 0-.0567756-.0460276-.102803-.102803-.102803h-3.30817l-.102803-.514008h1.14866c.00020472 0 .00039764.00002756.00059843.00002756zm-.308327.976587c0 .141717-.115283.257004-.257.257004s-.257004-.115287-.257004-.257004.115287-.257004.257004-.257004.257.115287.257.257004zm2.31304 0c0 .141717-.115287.257004-.257004.257004s-.257004-.115287-.257004-.257004.115287-.257004.257004-.257004c.141713 0 .257004.115287.257004.257004zm-2.10427-1.90182h1.17589l-.179898.719606-.816094.00000394-.179902-.71961zm-.0320236.719606h-1.05879l-.143921-.719606h1.02281l.179902.719606zm2.25943 0h-1.01949l.179898-.719606.999508-.00000394-.159913.71961zm.365516-1.64482-.159913.71961-.993799-.00000394.0518425-.207366c.0158189.00104331.0317283.00176378.0478031.00176378.32535 0 .600823-.217106.689524-.514008l.364543.00000394zm-1.05407-.719614c.283425 0 .514008.230583.514008.514008s-.230583.514008-.514008.514008-.514008-.230583-.514008-.514008.230583-.514008.514008-.514008zm-.68952.719614c.0648386.217043.229449.391429.440476.469528l-.0625236.250083-1.27869-.00000394-.179898-.71961 1.08064.00000394zm-1.29256 0 .179902.71961-1.01254-.00000394-.143921-.71961.976555.00000394z"/><path d="m4.54414 2.17971h.102803v.102803c0 .0567756.0460276.102803.102803.102803.0567717 0 .102803-.0460236.102803-.102803v-.102803h.102803c.0567717 0 .102803-.0460236.102803-.102803 0-.0567756-.0460276-.102803-.102803-.102803h-.102803v-.102803c0-.0567756-.0460276-.102803-.102803-.102803-.0567717 0-.102803.0460236-.102803.102803v.102803h-.102803c-.0567717 0-.102803.0460236-.102803.102803 0 .0567756.0460354.102803.102803.102803z"/></g></svg>